<svg xmlns="http://www.w3.org/2000/svg" viewBox="0 0 116.5 72.01"><defs><style>.cls-1{fill:#ff5f00;}.cls-2{fill:#eb001b;}.cls-3{fill:#f79e1b;}</style></defs><title>Ресурс 2</title><g id="Слой_2" data-name="Слой 2"><g id="Слой_1-2" data-name="Слой 1"><g id="Layer_2" data-name="Layer 2"><g id="Layer_1-2" data-name="Layer 1-2"><g id="_Group_" data-name=" Group "><rect class="cls-1" x="42.5" y="7.7" width="31.5" height="56.61"/><path id="_Path_" data-name=" Path " class="cls-2" d="M44.5,36A35.94,35.94,0,0,1,58.25,7.7a36,36,0,1,0,0,56.61A35.94,35.94,0,0,1,44.5,36Z"/><path class="cls-3" d="M116.5,36a36,36,0,0,1-58.25,28.3,36,36,0,0,0,0-56.61A36,36,0,0,1,116.5,36Z"/><path class="cls-3" d="M113.06,58.31V57.15h.47v-.24h-1.19v.24h.51v1.16Zm2.31,0v-1.4H115l-.42,1-.42-1h-.32v1.4h.26v-1l.39.91h.27l.39-.91v1.06Z"/></g></g></g></g></g></svg>